<svg xmlns="http://www.w3.org/2000/svg" width="57.373" height="57.398" viewBox="0 0 57.373 57.398">
  <g id="_" data-name="@" transform="translate(-0.09 0.161)">
    <path id="Path_41" data-name="Path 41" d="M26.178-.1A30.813,30.813,0,0,0,12.4,4.824a28.232,28.232,0,0,0-7.579,7.69A29.169,29.169,0,0,0,9.041,49.466a29.509,29.509,0,0,0,9.633,6.011A29.33,29.33,0,0,0,32.9,56.949,28.094,28.094,0,0,0,43.987,52.8a28.749,28.749,0,0,0,10.55-37.039,29.492,29.492,0,0,0-8.2-9.945A28.548,28.548,0,0,0,36.595.9,28.19,28.19,0,0,0,28.754-.143,19.938,19.938,0,0,0,26.178-.1Z" transform="translate(0 0)" fill="#e9e9e9"/>
    <path id="Path_42" data-name="Path 42" d="M139.426,0,115.9,21.954a8.379,8.379,0,0,0-4.144-1.676,9.213,9.213,0,0,0-4.368.7,8.36,8.36,0,0,0-2.607,1.889,8.143,8.143,0,0,0-1.648,2.557A8.453,8.453,0,0,0,106.5,35.679a8.621,8.621,0,0,0,5.936,1.069c2.018-.354,3.221-1.573,4.816-2.7a5.3,5.3,0,0,0,2.464,2.168,6.747,6.747,0,0,0,7.83-1.5c1.708-1.835,1.843-4.227,1.68-6.608a19.261,19.261,0,0,0-9.959-15.981,18.741,18.741,0,0,0-21.389,3.334,18.436,18.436,0,0,0,5.708,30.022,18.937,18.937,0,0,0,7.617,1.442,17.459,17.459,0,0,0,8.849-2.4,7.263,7.263,0,0,0,2.385-1.749,1.643,1.643,0,0,0-1.937-2.393,9.661,9.661,0,0,0-1.568,1,14.7,14.7,0,0,1-2.464,1.258,15.2,15.2,0,0,1-12.657-.684,15.614,15.614,0,0,1-4.336-3.438,15.157,15.157,0,0,1,3.664-22.984,15,15,0,0,1,18.9,2.823,16.1,16.1,0,0,1,3.466,7.057,18.428,18.428,0,0,1,.487,4.144,5.266,5.266,0,0,1-.124,1.68,3.419,3.419,0,0,1-6.432.112,7.736,7.736,0,0,1-.164-2.688v-4.48a11.906,11.906,0,0,0-.092-2.576,1.635,1.635,0,0,0-2.575-1.03A2.292,2.292,0,0,0,115.9,21.954Z" transform="translate(-81.998 -0.143)" fill="#6e6e6e"/>
    <path id="Path_43" data-name="Path 43" d="M215.716,209.643a5.144,5.144,0,0,0-1.792.784,5.218,5.218,0,0,0-.765,7.772,5.288,5.288,0,0,0,4.8,1.408,5.145,5.145,0,0,0,1.792-.784,5.218,5.218,0,0,0,.765-7.772A5.288,5.288,0,0,0,215.716,209.643Z" transform="translate(-187.97 -186.206)" fill="#e9e9e9"/>
  </g>
</svg>
