<svg xmlns="http://www.w3.org/2000/svg" width="57.373" height="57.398" xmlns:v="https://vecta.io/nano"><path d="M26.088.061c-4.921.511-9.647 2.2-13.778 4.924a28.23 28.23 0 0 0-7.579 7.69c-7.647 11.733-5.875 27.245 4.22 36.952a29.51 29.51 0 0 0 9.633 6.011A29.33 29.33 0 0 0 32.81 57.11c3.948-.58 7.728-1.994 11.087-4.149 12.488-7.819 17.044-23.813 10.55-37.039a29.49 29.49 0 0 0-8.2-9.945 28.55 28.55 0 0 0-9.742-4.916A28.19 28.19 0 0 0 28.664.018a19.94 19.94 0 0 0-2.576.043z" fill="#e9e9e9"/><path d="M57.338.018L33.812 21.972a8.38 8.38 0 0 0-4.144-1.676c-1.491-.125-2.99.115-4.368.7a8.36 8.36 0 0 0-2.607 1.889c-.705.741-1.264 1.609-1.648 2.557-1.49 3.783-.076 8.091 3.367 10.255a8.62 8.62 0 0 0 5.936 1.069c2.018-.354 3.221-1.573 4.816-2.7a5.3 5.3 0 0 0 2.464 2.168c2.658 1.26 5.826.653 7.83-1.5 1.708-1.835 1.843-4.227 1.68-6.608a19.26 19.26 0 0 0-9.959-15.981 18.74 18.74 0 0 0-21.389 3.334c-4.348 4.316-6.268 10.509-5.124 16.528s5.203 11.075 10.832 13.494c2.412 1.001 5.006 1.492 7.617 1.442a17.46 17.46 0 0 0 8.849-2.4c.907-.413 1.718-1.009 2.385-1.749.349-.591.294-1.336-.138-1.869s-1.149-.742-1.799-.524a9.66 9.66 0 0 0-1.568 1 14.7 14.7 0 0 1-2.464 1.258 15.2 15.2 0 0 1-12.657-.684c-1.638-.879-3.107-2.043-4.336-3.438-2.954-3.387-4.253-7.911-3.546-12.349s3.349-8.334 7.21-10.635a15 15 0 0 1 18.9 2.823 16.1 16.1 0 0 1 3.466 7.057 18.43 18.43 0 0 1 .487 4.144c.049.563.007 1.13-.124 1.68a3.42 3.42 0 0 1-6.432.112c-.211-.88-.267-1.789-.164-2.688v-4.48c.063-.859.032-1.723-.092-2.576-.1-.555-.478-1.019-1.002-1.229s-1.118-.134-1.573.199a2.29 2.29 0 0 0-.705 1.377z" fill="#6e6e6e"/><path d="M27.656 23.598c-.642.144-1.25.41-1.792.784a5.22 5.22 0 0 0-.765 7.772 5.29 5.29 0 0 0 4.8 1.408c.642-.144 1.25-.41 1.792-.784a5.22 5.22 0 0 0 .765-7.772 5.29 5.29 0 0 0-4.8-1.408z" fill="#e9e9e9"/></svg>