<svg xmlns="http://www.w3.org/2000/svg" width="1919.429" height="1665.596" viewBox="0 0 1919.429 1665.596">
  <path id="Path_62" data-name="Path 62" d="M1784.295-427.184l-11.979,22.817-95.258,46.773-95.259,46.2-11.979-1.141-11.978-1.141-25.1,13.69-25.1,13.69-125.49,64.456-125.49,64.456-19.394,3.423-19.964,3.422-15.4,26.239-15.4,26.809L1165.97-46.15,1145.436,4.616l.57,25.1.57,25.1,3.993,14.26,3.993,14.26L1130.6,197.415,1106.648,311.5l-5.134,22.246-5.134,22.816-6.845,2.281-6.845,2.282V322.9l-19.394-158-19.964-158-7.986-15.972-8.556-15.971-10.267-9.127-10.838-9.7L982.869-55.277,960.052-66.685,928.68-72.959l-31.372-6.275L834.562-87.22l-62.745-8.556L678.84-102.62l-93.547-6.845-86.132,3.423-86.7,2.852-22.816,6.845L366.826-89.5,350.284-77.523,333.743-66.114,323.475-42.727,313.208-18.77l-9.7,158.574L293.243,298.377l6.845,30.8,6.275,30.8,7.986,18.253,8.556,18.823,9.127,24.528,9.126,24.528L332.6,458.663l-8.556,11.979V510l-8.556,6.275-7.986,6.274-6.845,50.766-6.274,51.337,2.852,26.809,3.422,26.81-7.986,10.267-7.986,10.838-.57,54.189v54.189l13.69,29.091,13.69,29.661,42.21,3.993,41.64,4.563,77.005,6.274,77.005,6.275,1.711,21.105,1.711,21.675-47.344.571-47.344.57L317.2,932.673l-140.321.57-4.563,4.563-3.993,3.993H148.359l-17.112,19.394-17.112,19.394L103.867,1007.4,93.6,1034.206l6.275,36.506,6.275,36.506,10.838,21.105L127.254,1150l11.408,1.711,11.408,2.282,11.408,10.267,11.408,10.267,284.064,10.267,284.064,10.267,19.394-10.267,19.394-10.838,8.556-21.676,9.127-22.246v-39.929h85.561v74.724l27.38,25.1,26.809,25.668h17.683l133.476-11.408,134.046-11.979,92.977-7.986,92.406-8.556h22.817v-17.683l-14.26-18.823-14.261-18.824-3.422-17.682-3.422-17.683,11.979-23.387,11.979-23.387v-15.4l-7.986-6.275-7.986-6.845-20.535,3.993-20.535,3.422v10.267l14.26,3.422,13.69,3.423-7.986,19.964-8.556,19.964v32.513l-18.253,2.852-18.823,2.852-188.235,14.831-188.235,14.831-29.661,3.422-30.232,3.423v-82.139l7.415-2.282,6.845-2.282,179.679-11.408,179.109-11.978,4.563-4.563,3.993-3.993-7.415-29.091-7.415-28.52-6.845-12.549-6.845-13.12L1234.99,936.1l-18.253-11.408H1175.1l-2.282-6.275-2.282-6.845-11.978,6.274-11.979,6.845-2.282-6.845-2.282-6.274-13.119,7.415-13.69,6.845-3.993-6.845-4.563-7.415-6.845,4.563-6.275,3.993-22.817,1.141-22.246.57v-5.7l-67.308.57-67.308.57L873.92,911l-39.358-5.7,82.709-11.979,82.709-12.549,19.965,5.7,19.964,5.7,70.16-3.422L1180.8,885.9l4.564-4.564,5.133-5.133,6.275-51.337,6.275-51.337,7.986-25.669,8.556-26.239,2.282-45.633,2.852-45.633,8.556-22.816,8.556-22.246,11.979-57.041,12.549-57.041,4.563-19.964,4.563-19.964,11.408-43.351,11.408-42.781,32.513-94.117,33.084-93.548,17.112-37.076L1398.7,83.333l17.112-25.668L1432.922,32l11.979-9.127,11.408-9.7,25.669-23.387,25.668-23.957,59.323-46.774,59.323-46.773,24.528-18.824,25.1-18.253h9.127l16.542-17.112,16.542-17.112h7.415l6.274,55.33,5.7,55.9,26.239,219.608L1790,351.425l11.979,87.843,11.408,87.272-1.711,1.711-1.711,2.282-54.189-22.817L1701.585,484.9l-13.69-.57-13.119-.57-11.408-18.824-11.408-19.394h-9.126l-3.423,9.127-3.422,9.126v21.675l-22.817-22.816-22.816-22.817h-21.676l6.275,19.964,5.7,19.964-4.564,3.993-4.563,4.563-2.282-7.416-2.852-6.845H1554.99L1531.032,454.1,1506.5,434.135h-7.415v17.683l9.126,17.112,8.556,17.683-2.852,3.422-3.422,3.423-9.127-12.549-8.556-12.549h-15.971l-7.415-7.416-7.415-7.986-13.69-6.845L1435.2,438.7l-5.7,5.7-5.7,5.7,26.239,55.9,26.239,56.471,5.134,8.556,4.563,8.556,22.246,6.845,22.246,6.275-6.845.57-7.415.57,10.268,23.957,9.7,24.528,22.246,38.788,21.676,38.788,20.534,13.69,21.106,14.26h61.034l23.387-25.669,23.957-26.239,59.322-2.282,59.893-2.282,10.267-13.119,10.267-13.12V646.327l37.647-13.119,38.218-13.69,11.408-15.972,11.979-15.4,22.246-3.993,21.675-3.422-1.711-11.979-1.711-11.979-12.549-1.711-13.12-1.711v-3.993l-.57-3.993-2.282-31.373-2.852-31.372-6.275-70.731-6.274-70.16,3.422-35.365,3.993-34.8-9.7-99.822-9.126-99.822-1.712-128.342-1.711-128.342-11.408-58.182-11.979-58.182-11.409-26.809-11.978-26.809-23.387-34.225-23.386-34.224-14.831-13.12-15.4-13.12-15.4-.57H1795.7Zm42.78,11.408,3.422,5.7h-18.253l3.423-5.7,3.422-5.7h4.563Zm-51.907,49.625L1764.9-350.179l-7.415,7.415-7.416,7.415v13.69l-45.062,21.676-45.062,21.105h-11.978L1637.7-265.758l-10.267,13.69-17.112,3.993-17.112,3.993-42.781,20.535-42.781,20.535-33.654,15.972L1440.337-170.5l12.549-13.69,12.549-13.119,60.463-30.8,60.463-30.8,2.852-10.267,2.282-9.7,83.85-43.922,83.28-44.492,11.408-6.274,11.408-6.845,2.281-.57,1.711-.57Zm65.6,77.576-2.282,1.711-11.408,7.986-11.408,8.556,7.986-10.268,7.415-9.7h11.979Zm-84.991,9.127v5.7l-5.7,3.423-5.7,3.422-5.7-3.422-5.7-3.423,2.852-5.7,3.423-5.134h16.542Zm119.216,48.484,6.274,35.936V-130l-7.986,19.394-8.556,19.965-9.127-3.422-9.127-3.423-5.7-11.408L1834.49-120.3l2.852-2.852,2.852-2.852,3.993,11.979,3.423,11.978h17.683l-2.852-13.119-3.422-12.548-6.274-58.752-6.845-58.182,3.993-21.676,3.993-21.1,7.415,10.267,7.416,10.267Zm-58.182-6.845-2.282,13.119V-247.5l-.57-22.816,2.852,9.7,2.281,10.268Zm5.7,42.78-2.852,10.268v-34.225l2.852,6.845,2.852,7.416Zm5.7,34.225-2.852,10.268v-34.224l2.852,6.845,2.852,7.415Zm-215.045-13.119v2.852l-6.844,3.993-6.275,3.993,3.993-6.275,3.993-6.845h5.134Zm-22.816,17.683v2.852h-5.7v-5.7h5.7Zm-11.408,5.134v2.282l-49.625,33.084-50.2,33.084-12.549,11.408-13.12,10.838v-5.134l.571-5.134,12.549-9.126,12.549-9.127,47.915-31.943,47.915-32.513h3.993Zm254.973,15.971-2.852,7.416-.571-10.838-.57-10.838,3.422,3.423,3.422,3.422ZM1444.9-56.418l-3.423,5.134-18.253,11.979-18.253,12.549L1423.8-44.439l18.253-17.683h6.275ZM726.184-9.644l2.852,18.823L749,179.162l19.964,170.552v26.809l-11.978,1.711-12.549,1.711-3.993,8.556-4.563,8.556-10.268,21.105-10.838,21.676H683.4V405.614H667.432l-3.993-37.076-3.993-37.076-7.415-7.985-7.986-7.416-13.12-33.654-13.69-33.655,6.845-105.526L630.356,37.7,637.2,20.588l6.845-17.112,15.4-15.972,14.831-15.4h48.485Zm246.988-7.416,12.549,6.845,8.556,13.12,9.127,13.119,22.246,179.109,22.816,179.108,3.422,21.105,3.423,21.676h-18.253v17.112H1053.6l6.275,10.838,5.7,11.408v50.2l-7.986,16.542-7.986,16.542-15.971,62.745-15.4,62.745-3.422,3.423-3.422,3.993-43.921,3.422-44.492,3.993V588.145h34.795l10.267-24.528,10.267-24.527,6.845-30.8,6.845-30.8,4.563-5.7,4.563-6.274,3.993-15.972,3.422-15.4H948.644L934.384,463.8l-14.26,29.661-6.274,1.711L907,497.45l-8.556-30.232-9.127-30.232-2.852-18.253-2.852-18.253-9.127-20.535-8.556-21.106-25.668,2.282L814.6,362.833v-5.7L791.781,180.3,768.965,3.476l-2.852-16.542-2.852-16.542,98.681,2.852L960.052-23.9ZM508.288-3.94,609.821,13.743l-3.993,9.127L602.405,32l-5.7,88.413L591,208.823l-2.281,2.281L587,212.816,560.2,203.689l-27.38-9.126H497.45l-13.119,9.126-13.69,9.7,3.422,41.64,2.852,42.21-74.724-3.423L326.9,289.821l-2.282-1.711L322.9,286.4l9.127-121.5,9.126-121.5,3.422-29.661L348-15.918l9.7-2.282,9.127-2.852,19.964-.571,19.964-.57Zm888.7-7.986-5.134,9.7-13.12,11.408-13.119,11.409,15.971-21.676,15.972-21.1h5.134Zm-34.225,45.062-5.7,10.267-9.127,11.408-9.7,11.408,7.986-14.26,7.986-14.26,4.563-7.415,3.993-6.845h5.7ZM1921.193,311.5l6.275,7.985L1932.6,403.9l5.134,84.421.57,7.986V504.3l-9.7-9.127-10.268-8.556-15.4-3.993-14.83-3.993,3.993-14.83,3.993-15.4-.571-19.965-1.141-19.964-3.423-65.6-3.993-65.6-2.282-111.23L1882.4,54.812l16.542,124.35,15.971,124.92ZM1339.375,71.925v2.852h-5.7v-5.7h5.7Zm-162,165.99-9.127,61.034,3.423,27.38,3.993,27.95h-12.549l-2.852,9.7-2.852,10.267-17.682,99.822-17.683,99.822-2.851,10.267-3.423,10.838-2.851-2.852-2.282-2.852-2.852-43.351-2.852-43.922,8.556-39.358,9.127-39.358V383.369l10.838-21.676,11.408-21.676,1.712-14.26,2.281-14.26,16.542-75.865,17.112-75.864,1.711,8.556,1.711,8.556Zm-711.3,79.857,17.683,3.993,6.274,24.527,6.275,25.1h10.268V398.2l-13.69,12.549L479.2,423.867l-22.246,2.282-21.676,2.281-33.654-3.422-33.084-3.422-18.824-41.069-18.823-40.5L326.9,326.9l-3.422-12.549h124.92ZM662.3,454.67l4.563,33.654-.57,21.1V531.1l-7.416,21.1-6.845,21.676-13.69,1.711-13.69,2.282,3.993-14.831,3.423-14.831,3.422-27.38,2.852-26.809,2.282-15.4L642.9,463.8l-16.542-6.274-17.112-5.7,5.7-15.4,6.274-15.4,2.282-4.563,2.852-3.993,15.971,3.993,15.4,3.993ZM406.755,486.042l22.816,6.274,35.936,16.542L501.443,525.4l6.274,13.69,5.7,13.69-3.993,78.146-3.993,78.146-18.253-3.422L469.5,702.8l-51.337-3.993-51.337-3.993-11.979-3.993-11.408-4.564L336.024,646.9l-6.845-38.788,11.408-59.323,10.838-58.753,7.416-5.133,7.986-5.134h17.112Zm1282.851,19.394,8.556,8.556,10.268.57H1718.7l23.957,9.7,23.957,9.7-4.563,7.986-4.563,7.415-26.239,5.134-26.239,4.563-30.232-5.134-30.232-5.134-17.112-5.134-17.112-5.134-31.373-13.69-31.373-13.69,57.041-6.275,57.041-6.274,9.7-1.141,9.7-.57Zm238.431,50.2,5.7,10.838-10.838,7.986-10.267,7.986-11.408,6.845-11.408,6.274,7.986-9.127,7.416-9.7-3.993-26.809-3.993-27.38,12.549,11.408,12.549,11.408ZM1817.378,591l-1.711,1.711L1799.7,596.7l-15.4,3.993V573.885l15.971-8.556,15.4-9.127,1.711,16.542,1.711,16.542ZM1074.7,644.046l-3.422,2.852-2.852-2.852-2.852-2.852,3.993-19.394,4.563-19.394,1.711,18.824,1.711,19.394ZM318.912,721.621l-5.7,6.845-5.134,27.95-5.7,28.52-.571-34.795-.57-34.8,3.422-3.422,3.422-3.423,7.986,3.423,8.556,2.852Zm268.663,21.105,207.059,17.682,62.745-3.422,62.745-3.422,30.232-3.422,29.661-3.993v73.583l-5.134,5.7-5.134,5.134-2.282,14.26-1.711,14.26-59.893,9.7-59.893,9.7H800.908l-44.492.571L575.6,864.794l-180.249-14.26-29.661-2.852-30.232-3.422V747.29l5.7-11.408,6.275-10.838h32.513ZM1139.732,962.9l2.852,2.852-10.267,5.133-9.7,5.7v16.542h-25.669l-21.1-5.7-21.105-6.275-28.52-12.549L997.129,956.06l70.16,1.711,69.59,2.282ZM894.455,987.432l8.556,6.274L885.9,989.714l-17.112-3.993-2.281-1.711-2.282-2.281H885.9Zm21.105,9.7-3.993,3.422-3.993-3.422-3.422-3.993h14.831Zm13.12,4.564v2.852h-5.7v-5.7h5.7ZM220.8,1029.643l9.126,7.986,119.786,6.274,119.786,6.275h46.2v31.943l-.57,32.513-52.478-3.422-53.048-2.852v10.267H387.361l-3.422-5.7-3.423-5.7H349.144l-6.845,6.845-6.845,6.845-10.267-9.7-10.838-9.7H295.525l-11.408,6.845-11.408,6.845-6.845-6.845-6.845-6.845H221.942l-3.422,5.7-3.422,5.7H199.126L190,1095.81l-8.556-16.542V1043.9l5.7-11.408,6.275-10.838h18.253Zm379.323,21.676,9.126,12.549v49.055l-11.408,11.408-11.408,11.408h-9.7L565.9,1123.76l-10.838-11.978v-54.189l7.986-9.127,7.415-9.7h21.105Z" transform="translate(-93.6 450)" fill="rgba(93,93,93,0.44)"/>
</svg>
