<svg xmlns="http://www.w3.org/2000/svg" width="765" height="344" viewBox="0 0 765 344">
  <g id="LOGO" transform="translate(-537 -274)">
    <g id="svg-logo" transform="translate(566.931 274)">
      <g id="Group_2" data-name="Group 2" transform="translate(0)">
        <path id="Path_38" data-name="Path 38" d="M372.017-446.243l-1.973,3.757-15.687,7.7-15.687,7.608-1.973-.188-1.973-.188-4.133,2.254-4.133,2.254-20.665,10.614-20.665,10.614-3.194.564-3.288.564-2.536,4.321-2.536,4.415-3.382,8.454-3.382,8.36.094,4.133.094,4.133.658,2.348.658,2.348-3.945,18.787L260.425-324.6l-.845,3.663-.845,3.757-1.127.376-1.127.376v-6.293l-3.194-26.019L250-374.76l-1.315-2.63-1.409-2.63-1.691-1.5-1.785-1.6L240.041-385l-3.757-1.879-5.166-1.033-5.166-1.033-10.333-1.315-10.333-1.409-15.311-1.127-15.405-1.127-14.184.564-14.278.47-3.757,1.127-3.757,1.127-2.724,1.973-2.724,1.879-1.691,3.851-1.691,3.945-1.6,26.113-1.691,26.113,1.127,5.072,1.033,5.072,1.315,3.006,1.409,3.1,1.5,4.039,1.5,4.039-1.409,2.067-1.409,1.973v6.481l-1.409,1.033-1.315,1.033-1.127,8.36-1.033,8.454.47,4.415.564,4.415-1.315,1.691-1.315,1.785-.094,8.924v8.924l2.254,4.791,2.254,4.884,6.951.658,6.857.751,12.681,1.033,12.681,1.033.282,3.476.282,3.569-7.8.094-7.8.094-23.2.188-23.107.094-.751.751-.658.658h-3.288L99.8-217.61l-2.818,3.194L95.291-210,93.6-205.587l1.033,6.012,1.033,6.012,1.785,3.476,1.691,3.569,1.879.282,1.879.376,1.879,1.691,1.879,1.691,46.779,1.691,46.779,1.691,3.194-1.691,3.194-1.785,1.409-3.569,1.5-3.663v-6.575H223.6v12.305l4.509,4.133,4.415,4.227h2.912l21.98-1.879,22.074-1.973,15.311-1.315,15.217-1.409h3.757V-185.2l-2.348-3.1-2.348-3.1-.564-2.912-.564-2.912,1.973-3.851,1.973-3.851v-2.536l-1.315-1.033-1.315-1.127-3.382.658-3.382.564v1.691l2.348.564,2.254.564-1.315,3.288-1.409,3.288v5.354l-3.006.47-3.1.47-31,2.442-31,2.442-4.885.564-4.978.564v-13.526l1.221-.376,1.127-.376,29.589-1.879,29.495-1.973.752-.751.657-.658-1.221-4.791-1.221-4.7-1.127-2.066-1.127-2.16-3.006-1.785-3.006-1.879H271.7l-.376-1.033-.376-1.127-1.973,1.033L267-223.622l-.376-1.127-.376-1.033-2.16,1.221-2.254,1.127-.658-1.127-.751-1.221-1.127.751-1.033.658-3.757.188-3.663.094v-.939l-11.084.094-11.084.094-6.575-1.033-6.481-.939,13.62-1.973,13.62-2.066,3.288.939,3.288.939,11.554-.564,11.648-.47.751-.751.845-.845,1.033-8.454,1.033-8.454,1.315-4.227,1.409-4.321.376-7.515.47-7.515,1.409-3.757,1.409-3.663,1.973-9.393,2.066-9.393.751-3.288.751-3.288,1.879-7.139,1.879-7.045,5.354-15.5,5.448-15.4,2.818-6.106,2.912-6.106,2.818-4.227,2.818-4.227,1.973-1.5,1.879-1.6,4.227-3.851,4.227-3.945,9.769-7.7,9.769-7.7,4.039-3.1,4.133-3.006h1.5l2.724-2.818,2.724-2.818h1.221l1.033,9.111.939,9.205,4.321,36.164,4.321,36.164,1.973,14.466,1.879,14.372-.282.282-.282.376-8.924-3.757-8.924-3.757-2.254-.094-2.16-.094-1.879-3.1-1.879-3.194h-1.5l-.564,1.5-.564,1.5v3.569l-3.757-3.757-3.757-3.757H336.51l1.033,3.288.939,3.288-.752.658-.751.751L336.6-296.7l-.47-1.127h-1.879l-3.945-3.288-4.039-3.288H325.05v2.912l1.5,2.818,1.409,2.912-.47.564-.564.564-1.5-2.067-1.409-2.066h-2.63l-1.221-1.221-1.221-1.315-2.254-1.127-2.16-1.221-.939.939-.939.939,4.321,9.205,4.321,9.3.845,1.409.752,1.409,3.663,1.127,3.663,1.033-1.127.094-1.221.094,1.691,3.945,1.6,4.039,3.663,6.387,3.57,6.387,3.382,2.254,3.476,2.348H355.3l3.851-4.227,3.945-4.321,9.769-.376,9.863-.376,1.691-2.16,1.691-2.16v-3.1l6.2-2.16,6.294-2.254,1.879-2.63,1.973-2.536,3.663-.658,3.569-.564-.282-1.973-.282-1.973-2.067-.282-2.16-.282v-.658l-.094-.658-.376-5.166-.47-5.166-1.033-11.648-1.033-11.554.564-5.824.658-5.73-1.6-16.438-1.5-16.438-.282-21.135-.282-21.135-1.879-9.581-1.973-9.581-1.879-4.415-1.973-4.415-3.851-5.636-3.851-5.636-2.442-2.16-2.536-2.16L376.525-450H373.9Zm7.045,1.879.564.939h-3.006l.564-.939.564-.939h.751Zm-8.548,8.172-1.691,2.63-1.221,1.221-1.221,1.221v2.254L358.96-425.3l-7.421,3.475h-1.973l-1.691,2.16-1.691,2.254-2.818.657-2.818.658-7.045,3.382-7.045,3.382-5.542,2.63-5.542,2.724,2.067-2.254,2.066-2.161,9.957-5.072,9.957-5.072.47-1.691.376-1.6,13.808-7.233,13.714-7.327,1.879-1.033,1.879-1.127.376-.094.282-.094Zm10.8,12.775-.376.282-1.879,1.315-1.879,1.409L378.5-422.1l1.221-1.6h1.973Zm-14,1.5v.939l-.939.564-.939.564-.939-.564-.939-.564.47-.939.564-.845h2.724Zm19.632,7.984,1.033,5.918V-397.3l-1.315,3.194-1.409,3.288-1.5-.564-1.5-.564-.939-1.879-1.033-1.879.47-.47.47-.47.657,1.973.564,1.973h2.912l-.47-2.161-.564-2.066-1.033-9.675-1.127-9.581.657-3.569.658-3.475,1.221,1.691,1.221,1.691Zm-9.581-1.127L377-412.9v-3.757l-.094-3.757.47,1.6.376,1.691Zm.939,7.045-.47,1.691v-5.636l.47,1.127.47,1.221Zm.939,5.636-.47,1.691v-5.636l.47,1.127.47,1.221Zm-35.413-2.161v.47l-1.127.658-1.033.657.658-1.033.658-1.127h.845Zm-3.757,2.912v.47h-.939v-.939h.939Zm-1.879.845v.376l-8.172,5.448-8.266,5.448-2.067,1.879-2.16,1.785v-.845l.094-.845,2.066-1.5,2.067-1.5,7.89-5.26,7.89-5.354h.658Zm41.988,2.63-.47,1.221-.094-1.785-.094-1.785.564.564.564.564Zm-64.062,12.963-.564.845-3.006,1.973-3.006,2.066,3.1-2.912,3.006-2.912h1.033Zm-118.355,7.7.47,3.1,3.288,27.992,3.288,28.086v4.415l-1.973.282-2.067.282-.658,1.409-.751,1.409-1.691,3.475-1.785,3.569h-5.166V-309.1H188.1l-.658-6.106-.658-6.106-1.221-1.315-1.315-1.221-2.16-5.542-2.254-5.542,1.127-17.378,1.033-17.378,1.127-2.818,1.127-2.818,2.536-2.63,2.442-2.536h7.984Zm40.673-1.221,2.067,1.127,1.409,2.16,1.5,2.16,3.663,29.495,3.757,29.495.564,3.476.564,3.569h-3.006v2.818h2.724l1.033,1.785.939,1.879v8.266l-1.315,2.724-1.315,2.724-2.63,10.333-2.536,10.333-.564.564-.564.658-7.233.564-7.327.658v-15.123h5.73l1.691-4.039,1.691-4.039,1.127-5.072,1.127-5.072.751-.939.751-1.033.658-2.63.564-2.536h-9.863l-2.348,4.884-2.348,4.885-1.033.282-1.127.376-1.409-4.978-1.5-4.978-.47-3.006-.47-3.006-1.5-3.382-1.409-3.476-4.227.376-4.227.282v-.939L208.574-346.2l-3.757-29.119-.47-2.724-.47-2.724,16.25.47,16.156.47Zm-76.555,2.16,16.72,2.912-.658,1.5-.564,1.5-.939,14.56-.939,14.56-.376.376-.282.282-4.415-1.5-4.509-1.5H160.1l-2.16,1.5-2.254,1.6.564,6.857.47,6.951-12.305-.564-12.4-.658-.376-.282-.282-.282,1.5-20.008,1.5-20.008.564-4.885.564-4.884,1.6-.376,1.5-.47,3.288-.094,3.288-.094Zm146.347-1.315-.845,1.6-2.16,1.879-2.16,1.879,2.63-3.569,2.63-3.475h.845Zm-5.636,7.421-.939,1.691-1.5,1.879-1.6,1.879,1.315-2.348,1.315-2.348.751-1.221.658-1.127h.939Zm91.96,45.839,1.033,1.315.845,13.9.845,13.9.094,1.315v1.315l-1.6-1.5-1.691-1.409-2.536-.658-2.442-.658.658-2.442.658-2.536-.094-3.288-.188-3.288-.564-10.8-.657-10.8-.376-18.317-.376-18.317,2.724,20.477,2.63,20.571Zm-95.811-39.452v.47h-.939v-.939h.939Zm-26.677,27.334-1.5,10.051.564,4.509.658,4.6h-2.067l-.47,1.6-.47,1.691-2.912,16.438-2.912,16.438-.47,1.691-.564,1.785-.47-.47-.376-.47-.47-7.139-.47-7.233,1.409-6.481,1.5-6.481v-6.575l1.785-3.569,1.879-3.569.282-2.348.376-2.348,2.724-12.493,2.818-12.493.282,1.409.282,1.409ZM154.938-323.566l2.912.658,1.033,4.039,1.033,4.133h1.691v4.415l-2.254,2.066-2.254,2.16-3.663.376-3.569.376-5.542-.564-5.448-.564-3.1-6.763-3.1-6.669-.658-2.16-.564-2.066h20.571Zm32.313,22.544.751,5.542-.094,3.475v3.569l-1.221,3.475-1.127,3.569-2.254.282-2.254.376.658-2.442.564-2.442.564-4.509.47-4.415.376-2.536.376-2.442-2.724-1.033-2.818-.939.939-2.536,1.033-2.536.376-.751.47-.658,2.63.658,2.536.658Zm-42.082,5.166,3.757,1.033,5.918,2.724,5.918,2.724,1.033,2.254.939,2.254L162.077-272l-.658,12.869-3.006-.564-2.912-.47-8.454-.658-8.454-.658-1.973-.658-1.879-.751-1.221-6.481-1.127-6.387,1.879-9.769,1.785-9.675,1.221-.845,1.315-.845h2.818Zm211.255,3.194,1.409,1.409,1.691.094h1.691l3.945,1.6,3.945,1.6-.751,1.315-.751,1.221-4.321.845-4.321.751-4.978-.845L349-285.524l-2.818-.845-2.818-.845-5.166-2.254-5.166-2.254,9.393-1.033,9.393-1.033,1.6-.188,1.6-.094Zm39.264,8.266.939,1.785-1.785,1.315-1.691,1.315-1.879,1.127-1.879,1.033,1.315-1.5,1.221-1.6-.658-4.415-.658-4.509,2.067,1.879,2.066,1.879Zm-18.223,5.824-.282.282-2.63.658-2.536.658v-4.415l2.63-1.409,2.536-1.5.282,2.724.282,2.724Zm-122.3,8.736-.564.47-.47-.47-.47-.47.658-3.194.751-3.194.282,3.1.282,3.194ZM130.7-257.062l-.939,1.127-.845,4.6-.939,4.7-.094-5.73-.094-5.73.564-.564.564-.564,1.315.564,1.409.47Zm44.242,3.475,34.1,2.912,10.333-.564,10.333-.564,4.978-.564,4.884-.658v12.117l-.845.939-.845.845-.376,2.348-.282,2.348-9.863,1.6-9.863,1.6h-7.421l-7.327.094-29.777-2.348-29.683-2.348-4.885-.47-4.978-.564v-15.969l.939-1.879L135.4-256.5h5.354Zm90.927,36.258.47.47-1.691.845-1.6.939v2.724h-4.227l-3.475-.939-3.475-1.033-4.7-2.066-4.791-2.066,11.554.282,11.46.376Zm-40.391,4.039,1.409,1.033-2.818-.658-2.818-.658-.376-.282-.376-.376h3.569Zm3.476,1.6-.658.564-.658-.564-.564-.658h2.442Zm2.16.751v.47h-.939v-.939h.939Zm-116.571,4.6,1.5,1.315,19.726,1.033,19.726,1.033h7.609v5.26l-.094,5.354-8.642-.564-8.736-.47v1.691h-3.663l-.564-.939-.564-.939h-5.166l-1.127,1.127-1.127,1.127-1.691-1.6-1.785-1.6h-3.1l-1.879,1.127-1.879,1.127-1.127-1.127L120.84-194.5h-6.106l-.564.939-.564.939h-2.63l-1.5-2.818-1.409-2.724v-5.824l.939-1.879,1.033-1.785h3.006Zm62.465,3.569,1.5,2.066v8.078l-1.879,1.879-1.879,1.879h-1.6l-1.785-1.973-1.785-1.973v-8.924l1.315-1.5,1.221-1.6H175.6Z" transform="translate(-93.6 450)" fill="#fedd00"/>
      </g>
    </g>
    <text id="ZEM-OS" transform="translate(960.979 477.083)" fill="#fedd00" font-size="116" font-family="OldSchoolUnitedStencil, Old School United Stencil"><tspan x="0" y="0">ZEM-OS</tspan></text>
    <rect id="Rectangle_2" data-name="Rectangle 2" width="8.454" height="72.328" transform="translate(917.77 408.324)" fill="#fedd00"/>
    <text id="zemné_a_výkopové_práce_Preprava_materiálu" data-name="zemné a výkopové práce  • Preprava materiálu" transform="translate(537 609)" fill="#fedd00" font-size="37" font-family="OldSchoolUnitedStencil, Old School United Stencil"><tspan x="0" y="0" xml:space="preserve">zemné a výkopové práce  </tspan><tspan y="0" font-family="SegoeUI, Segoe UI">•</tspan><tspan y="0" xml:space="preserve"> Preprava materiálu</tspan></text>
  </g>
</svg>
