<svg xmlns="http://www.w3.org/2000/svg" width="210.627" height="58.28" xmlns:v="https://vecta.io/nano"><path d="M59.158.8l-.419.8-3.333 1.637-3.333 1.617-.419-.04-.419-.04-.878.479-.878.479-4.391 2.255-4.391 2.255-.679.12-.7.12-.539.918-.539.938-.719 1.8-.719 1.776.02.878.02.878.14.5.14.5-.838 3.992-.838 3.992-.18.778-.18.8-.24.08-.24.08v-1.337l-.679-5.529-.7-5.529-.279-.559-.3-.559-.359-.319-.379-.339-.8-.4-.8-.4-1.1-.22-1.1-.22-2.2-.279-2.2-.3-3.253-.24-3.273-.24-3.014.12-3.034.1-.8.24-.8.24-.579.419-.579.4-.359.818-.359.838-.339 5.549-.359 5.549.24 1.078.22 1.078.279.639.3.659.319.858.319.858-.3.439-.3.419V33.6l-.3.22-.279.22-.24 1.776-.22 1.8.1.938.12.938-.279.359-.279.379-.02 1.9v1.9l.479 1.018.479 1.038 1.477.14 1.457.16 2.694.22 2.694.22.06.738.06.758-1.657.02-1.657.02-4.93.04-4.91.02-.16.16-.14.14h-.7l-.6.679-.6.679-.359.938-.359.938.22 1.277.22 1.277.379.739.359.758.4.06.4.08.4.359.4.359 9.94.359 9.94.359.679-.359.679-.379.3-.758.319-.778v-1.4h2.994v2.615l.958.878.938.9h.619l4.67-.4 4.69-.419 3.253-.279 3.233-.3h.8v-.619l-.5-.659-.5-.659-.12-.619-.12-.619.419-.818.419-.818v-.539l-.279-.22-.279-.24-.719.14-.719.12v.359l.5.12.479.12-.279.7-.3.7v1.138l-.639.1-.659.1-6.586.519-6.586.519-1.038.12-1.058.12v-2.874l.259-.08.24-.08 6.287-.4 6.267-.419.16-.16.14-.14-.259-1.018-.259-1-.24-.439-.24-.459-.639-.379-.639-.4h-1.457l-.08-.22-.08-.24-.419.22-.419.239-.08-.239-.08-.22-.459.259-.479.24-.14-.24-.16-.259-.24.16-.22.14-.8.04-.778.02v-.2l-2.355.02-2.355.02-1.4-.22-1.377-.2 2.894-.419 2.894-.439.7.2.7.2 2.455-.12 2.475-.1.16-.16.18-.18.22-1.8.22-1.8.279-.9L39.4 41l.08-1.6.1-1.6.3-.8.3-.778.419-2 .439-2 .16-.7.16-.7.4-1.517.4-1.5 1.138-3.293 1.158-3.273.6-1.3.619-1.3.6-.9.6-.9.419-.319.4-.339.9-.818.9-.838 2.076-1.637 2.076-1.637.858-.659.878-.639h.319l.579-.6.579-.6h.259l.22 1.936.2 1.956.918 7.684.918 7.684.419 3.074.4 3.054-.06.06-.06.08-1.9-.8-1.9-.8-.479-.02-.459-.02-.4-.659-.4-.679h-.319l-.12.319-.12.319v.758l-.8-.8-.8-.8h-.758l.22.7.2.7-.16.14-.16.16-.08-.259-.1-.24h-.4l-.838-.7-.858-.7h-.259v.619l.319.6.3.619-.1.12-.12.12-.319-.439-.3-.439H48.4l-.259-.259-.259-.279-.479-.24-.459-.259-.2.2-.2.2.918 1.956.918 1.976.18.3.16.3.778.24.778.22-.24.02-.259.02.359.838.339.858.778 1.357.758 1.357.719.479.738.5h2.136l.818-.9.838-.918 2.076-.08 2.1-.08.359-.459.359-.459v-.659l1.317-.459 1.337-.479.4-.559.419-.539.778-.14.758-.12-.06-.419-.06-.419-.439-.06-.459-.06v-.14l-.02-.14-.08-1.1-.1-1.1-.22-2.475-.22-2.455.12-1.237.14-1.217-.339-3.493-.319-3.493-.06-4.491-.06-4.491-.4-2.036-.419-2.036-.4-.938-.419-.938-.818-1.2-.818-1.2-.519-.459-.539-.459-.539-.02h-.559zm1.5.4l.12.2h-.639l.12-.2.12-.2h.16zm-1.816 1.736l-.359.559-.259.259-.259.259v.479l-1.577.758-1.577.738h-.419l-.359.459-.359.479-.6.14-.6.14-1.5.719-1.5.719-1.178.559-1.178.579.439-.479.439-.459 2.116-1.078 2.116-1.078.1-.359.08-.339 2.934-1.537 2.914-1.557.4-.22.4-.24.08-.02.06-.02zm2.3 2.714l-.08.06-.4.279-.4.3.279-.359.259-.339h.419zm-2.974.319v.2l-.2.12-.2.12-.2-.12-.2-.12.1-.2.12-.18h.579zm4.171 1.7l.22 1.257v2.275l-.279.679-.3.7-.319-.12-.319-.12-.2-.4-.22-.4.1-.1.1-.1.14.419.12.419h.619l-.1-.459-.12-.439-.22-2.056-.24-2.036.14-.758.14-.738.259.359.259.359zm-2.036-.24l-.08.459v-.8l-.02-.8.1.339.08.359zm.2 1.5l-.1.359v-1.2l.1.24.1.259zm.2 1.2l-.1.359v-1.2l.1.24.1.259zm-7.525-.459v.1l-.24.14-.22.14.14-.22.14-.24h.18zm-.8.619v.1h-.2v-.2h.2zm-.4.18v.08l-1.736 1.158-1.756 1.158-.439.4-.459.379v-.18l.02-.18.439-.319.439-.319 1.677-1.118 1.677-1.138h.14zm8.922.559l-.1.259-.02-.379-.02-.379.12.12.12.12zm-13.612 2.754l-.12.18-.639.419-.639.439.659-.619.639-.619h.212zM22.14 15.419l.1.659.7 5.948.7 5.968v.938l-.419.06-.439.06-.14.3-.16.3-.359.738-.379.758h-1.1v-1.2h-.559l-.14-1.3-.14-1.3-.259-.279-.279-.259-.459-1.178-.479-1.178.24-3.692.22-3.692.24-.6.24-.6.539-.559.519-.539h1.7zm8.642-.259l.439.239.3.459.319.459.778 6.267.8 6.267.12.738.12.758h-.639v.6h.579l.22.379.2.4v1.756l-.279.579-.279.579-.559 2.2-.539 2.2-.12.12-.12.14-1.537.12-1.557.14v-3.213h1.217l.359-.858.359-.858.24-1.078.24-1.078.16-.2.16-.22.14-.559.12-.539h-2.1l-.5 1.038-.5 1.038-.22.06-.24.08-.3-1.058-.319-1.058-.1-.639-.1-.639-.319-.719-.3-.738-.9.08-.9.06v-.2l-.8-6.187-.8-6.187-.1-.579-.1-.579 3.453.1 3.433.1zm-16.267.459l3.553.619-.14.319-.12.319-.2 3.094-.2 3.094-.08.08-.06.06-.938-.319-.958-.319h-1.237l-.459.319-.479.339.12 1.457.1 1.477-2.615-.12-2.635-.14-.08-.06-.06-.06.319-4.251.319-4.251.12-1.038.12-1.038.339-.08.319-.1.7-.02.7-.02zm31.1-.279l-.18.339-.459.4-.459.4.559-.758.559-.738h.18zm-1.2 1.577l-.2.359-.319.4-.339.4.279-.5.279-.5.16-.259.14-.24h.2zm19.54 9.74l.22.279.18 2.954.18 2.954.02.279v.279l-.339-.319-.359-.3-.539-.14-.519-.14.14-.519.14-.539-.02-.7-.04-.7-.12-2.3-.14-2.3-.08-3.892-.08-3.892.579 4.351.559 4.371zm-20.358-8.383v.1h-.2v-.2h.2zm-5.668 5.808l-.319 2.136.12.958.14.978h-.439l-.1.339-.1.359-.619 3.493-.619 3.493-.1.359-.12.379-.1-.1-.08-.1-.1-1.517-.1-1.537.3-1.377.319-1.377v-1.4l.379-.758.4-.758.06-.5.08-.5.579-2.655.6-2.655.06.3.06.3zM13.04 26.876l.619.14.22.858.22.878h.359v.938l-.479.439-.479.459-.778.08-.758.08-1.178-.12-1.158-.12-.659-1.437-.659-1.417-.14-.459-.12-.439h4.371zm6.866 4.79l.16 1.178-.02.739v.758l-.259.739-.24.758-.479.06-.479.08.14-.519.12-.519.12-.958.1-.938.08-.539.08-.519-.579-.22-.6-.2.2-.539.22-.539.08-.16.1-.14.559.14.539.14zm-8.942 1.1l.8.219 1.257.579 1.257.579.22.479.2.479-.14 2.734-.14 2.734-.639-.12-.619-.1-1.8-.14-1.8-.14-.419-.14-.4-.16-.259-1.377-.24-1.357.4-2.076.379-2.056.259-.18.279-.18h.6zm44.888.679l.3.3.359.02h.359l.838.339.838.339-.16.279-.16.259-.918.18-.918.16-1.058-.18-1.058-.18-.6-.18-.6-.18-1.1-.479-1.1-.479 2-.22 2-.22.339-.04.339-.02zm8.343 1.756l.2.379-.379.279-.359.279-.4.24-.4.22.279-.319.259-.339-.14-.938-.14-.958.439.4.439.4zm-3.872 1.237l-.06.06-.559.14-.539.14v-.938l.559-.3.539-.319.06.579.06.579zm-25.987 1.856l-.12.1-.1-.1-.1-.1.14-.679.16-.679.06.659.06.679zM7.884 41l-.2.24-.18.978-.2 1-.02-1.217-.02-1.218.12-.12.12-.12.279.12.3.1zm9.4.738l7.245.619 2.2-.12 2.2-.12 1.058-.12 1.038-.14v2.575l-.18.2-.18.18-.08.5-.06.5-2.1.339-2.1.339h-1.577l-1.557.02-6.327-.5-6.307-.5-1.038-.1-1.058-.12v-3.393l.2-.4.22-.379h1.138zm19.32 7.7l.1.1-.359.18-.339.2v.579h-.9l-.738-.2-.738-.22-1-.439-1.018-.439 2.455.06 2.435.08zm-8.582.858l.3.22-.6-.14-.6-.14-.08-.06-.08-.08h.758zm.738.339l-.14.12-.14-.12-.12-.14h.519zm.459.16v.1h-.2v-.2h.2zm-24.769.978l.319.279 4.191.22 4.191.22h1.617v1.118l-.02 1.138-1.836-.12-1.856-.1v.359h-.778l-.12-.2-.12-.2h-1.1l-.24.24-.24.24-.359-.339-.379-.339h-.659l-.4.24-.4.24-.24-.24-.24-.24h-1.3l-.12.2-.12.2h-.559l-.319-.6-.3-.579v-1.237l.2-.4.22-.379h.639zm13.273.758l.319.439v1.716l-.4.4-.4.4h-.339l-.379-.419-.379-.419v-1.9l.279-.319.259-.339h.738z" fill="#fedd00"/><text fill="#fedd00" font-size="40" font-family="OldSchoolUnitedStencil, Old School United Stencil"><tspan x="93.627" y="44.64">ZEM-OS</tspan></text><path fill="#fedd00" d="M78.75 21.019h2.911v24.903H78.75z"/></svg>