<svg xmlns="http://www.w3.org/2000/svg" width="44.09" height="62.522" xmlns:v="https://vecta.io/nano"><path d="M19.574.142A22.04 22.04 0 0 0 2.761 11.423a22.04 22.04 0 0 0-.515 20.24l.784 1.592 9.429 14.634 9.564 14.634c.064 0 4.372-6.588 9.564-14.634l9.429-14.634.784-1.592a20.99 20.99 0 0 0 2.155-7.617l.135-1.323-.061-1.531c-.251-6.11-3.024-11.843-7.659-15.832S25.654-.519 19.574.142zm5.2 11.242a11.2 11.2 0 0 1 7.984 8.18l.208.833.144 1.714-.157 1.714-.269.98c-.212.715-.482 1.411-.808 2.082l-.539 1.1-.771.955a11.14 11.14 0 0 1-7.788 4.078l-1.065.086-1.09-.147c-4.449-.607-8.101-3.82-9.27-8.156l-.269-.98-.2-1.714.2-1.837.269-.98a11.1 11.1 0 0 1 8.658-8.082l.845-.171 1.47.037 1.47.049z" fill="#e9e9e9"/></svg>