<svg xmlns="http://www.w3.org/2000/svg" width="44.09" height="62.522" viewBox="0 0 44.09 62.522">
  <path id="Path_61" data-name="Path 61" d="M95.736-511.912a22.042,22.042,0,0,0-17.328,31.521l.784,1.592,9.429,14.634c5.192,8.046,9.5,14.634,9.564,14.634s4.372-6.588,9.564-14.634l9.429-14.634.784-1.592a20.991,20.991,0,0,0,2.155-7.617l.135-1.323-.061-1.531A22.086,22.086,0,0,0,95.736-511.912Zm5.2,11.242a11.2,11.2,0,0,1,7.984,8.18l.208.833.144,1.714-.157,1.714-.269.98a13.647,13.647,0,0,1-.808,2.082l-.539,1.1-.771.955a11.141,11.141,0,0,1-7.788,4.078l-1.065.086-1.09-.147a11.164,11.164,0,0,1-9.27-8.156l-.269-.98-.2-1.714.2-1.837.269-.98a11.1,11.1,0,0,1,8.658-8.082l.845-.171,1.47.037,1.47.049Z" transform="translate(-76.162 512.054)" fill="#e9e9e9"/>
</svg>
