<svg xmlns="http://www.w3.org/2000/svg" width="57.37" height="57.4" viewBox="0 0 57.37 57.4">
  <g id="phone-call" transform="translate(0 0.161)">
    <path id="Path_48" data-name="Path 48" d="M26.2-.1A30.726,30.726,0,0,0,11.87,5.167,29.412,29.412,0,0,0,4.48,12.956,28.749,28.749,0,0,0,.928,21.017,27.625,27.625,0,0,0,0,28.63,28.457,28.457,0,0,0,2.129,39.6a28.975,28.975,0,0,0,30.01,17.433,28.27,28.27,0,0,0,11.982-4.261,29.651,29.651,0,0,0,9.023-9.142,29.235,29.235,0,0,0,1.363-27.765A28.828,28.828,0,0,0,45.69,5.33,28.1,28.1,0,0,0,36.395.847,28.774,28.774,0,0,0,28.78-.143,19.938,19.938,0,0,0,26.2-.1Z" fill="#e9e9e9"/>
    <path id="Path_49" data-name="Path 49" d="M30.9,0,17.9,13.85a6.007,6.007,0,0,0-2.159,1.936,9.762,9.762,0,0,0-1.48,2.127c-1.381,2.86-.476,5.8.775,8.509a33.088,33.088,0,0,0,14.98,15.254c3.052,1.533,6.557,2.7,9.782,1a11.123,11.123,0,0,0,2.667-2.151,2.4,2.4,0,0,0,.873-1.343c.074-.807-.7-1.394-1.206-1.9l-3.112-3.135a7.007,7.007,0,0,0-1.556-1.435c-.873-.439-1.548.309-2.112.876-1.073,1.079-2.432,3.12-4.113,3.126-1.193,0-2.231-.968-3.112-1.671a38.873,38.873,0,0,1-5.973-5.933c-.833-1.031-1.852-2.148-1.542-3.583s1.983-2.6,2.958-3.583c.442-.446,1.149-.982,1.149-1.679,0-.739-.793-1.32-1.261-1.791l-3.668-3.695c-.516-.519-1.078-1.2-1.89-.929M0,31.124v26.2" transform="translate(0 -0.143)" fill="#6e6e6e"/>
  </g>
</svg>
