<svg xmlns="http://www.w3.org/2000/svg" width="57.37" height="57.4" xmlns:v="https://vecta.io/nano"><path d="M26.2.061c-5.144.522-10.073 2.334-14.33 5.267a29.41 29.41 0 0 0-7.39 7.789 28.75 28.75 0 0 0-3.552 8.061C.266 23.66-.046 26.223 0 28.791c-.022 3.761.701 7.49 2.129 10.97 5.032 11.822 17.248 18.918 30.01 17.433a28.27 28.27 0 0 0 11.982-4.261 29.65 29.65 0 0 0 9.023-9.142c5.107-8.433 5.619-18.872 1.363-27.765A28.83 28.83 0 0 0 45.69 5.491a28.1 28.1 0 0 0-9.295-4.483C33.912.339 31.351.006 28.78.018a19.94 19.94 0 0 0-2.58.043z" fill="#e9e9e9"/><path d="M30.9.018l-13 13.85c-.867.459-1.608 1.124-2.159 1.936a9.76 9.76 0 0 0-1.48 2.127c-1.381 2.86-.476 5.8.775 8.509a33.09 33.09 0 0 0 14.98 15.254c3.052 1.533 6.557 2.7 9.782 1 .995-.575 1.894-1.301 2.667-2.151a2.4 2.4 0 0 0 .873-1.343c.074-.807-.7-1.394-1.206-1.9l-3.112-3.135c-.443-.554-.968-1.038-1.556-1.435-.873-.439-1.548.309-2.112.876-1.073 1.079-2.432 3.12-4.113 3.126-1.193 0-2.231-.968-3.112-1.671-2.2-1.756-4.203-3.745-5.973-5.933-.833-1.031-1.852-2.148-1.542-3.583s1.983-2.6 2.958-3.583c.442-.446 1.149-.982 1.149-1.679 0-.739-.793-1.32-1.261-1.791l-3.668-3.695c-.516-.519-1.078-1.2-1.89-.929M0 31.142v26.2" fill="#6e6e6e"/></svg>