<svg xmlns="http://www.w3.org/2000/svg" width="56.72" height="56.95" xmlns:v="https://vecta.io/nano"><path d="M1.101 19.796h3.227c.467.068.942.045 1.4-.067.373-.177.516-.812.684-1.157.452-.926.907-2.393 1.738-3.048.342-.269.887-.178 1.293-.178h3.118c-.466 1.45-.801 2.94-1 4.45h3.34c.343 0 .955.114 1.208-.178.184-.321.298-.678.335-1.046l.607-2.114c.127-.388.186-.949.643-1.077.696-.099 1.401-.111 2.1-.035h4.562c4.695 0 9.44-.2 14.13 0 .739.032.84.606 1.017 1.222l.555 2c.037.368.151.725.335 1.046.253.293.865.178 1.208.178h3.338a20.01 20.01 0 0 0-1-4.45h3.115c.462 0 1.026-.092 1.388.258a9.76 9.76 0 0 1 1.632 2.857c.162.365.311 1.079.7 1.268a3.61 3.61 0 0 0 1.4.067h3.227c-.916-3.309-2.532-6.383-4.74-9.012a28.61 28.61 0 0 0-7.388-6.607 29 29 0 0 0-31.82 1.2c-2.22 1.619-4.194 3.552-5.858 5.738-2.082 2.553-3.613 5.51-4.494 8.685z" fill="#eee"/><path d="M19.458 10.896h17.579a15.91 15.91 0 0 0-2.893-3.778 9.77 9.77 0 0 0-2.448-1.8 8.56 8.56 0 0 0-2.782-.859c-4.152-.415-7.6 3.1-9.457 6.434m-3.672-3c-1.247.952-2.837 1.719-3.783 3 .611 0 1.765.223 2.293-.114.454-.29.665-1.1.918-1.555.227-.406.641-.858.572-1.335m24.811 0a13.54 13.54 0 0 0 1.088 2.114c.149.282.315.681.623.823a6.12 6.12 0 0 0 2.183.067c-1.073-1.261-2.399-2.283-3.892-3.001z" fill="#585858"/><path d="M8.777 28.03l1.622 3.783c.215.495.389 1.145.939 1.364a3.31 3.31 0 0 0 2.513-.188 5.62 5.62 0 0 0 .949-1.843l1.749-4.005.841-1.891c.159-.269.242-.576.24-.888-.046-.263-.249-.471-.511-.523a4.2 4.2 0 0 0-2.532.158c-.429.319-.56 1-.74 1.475l-1.4 3.672-1.463-3.449c-.167-.542-.411-1.058-.723-1.532a2.81 2.81 0 0 0-2.686-.181 3.84 3.84 0 0 0-.883 1.6 35.96 35.96 0 0 1-1.589 3.56l-1.258-3.56c-.17-.477-.278-1.237-.689-1.573-.508-.417-1.772-.241-2.392-.2-.28.018-.586.066-.711.354a1.36 1.36 0 0 0 .113.976l.868 2.114L2.7 31.258c.225.552.4 1.425.889 1.809.763.308 1.605.36 2.4.146.607-.171.783-.892 1.03-1.4l1.753-3.783m19.471-.111l1.695 3.894c.209.457.369 1.149.876 1.364.862.279 1.799.212 2.612-.188a5.63 5.63 0 0 0 .859-1.732l1.772-4.005.879-2a1.62 1.62 0 0 0 .216-.989.66.66 0 0 0-.566-.432c-.835-.199-1.71-.141-2.511.168-.36.3-.48.946-.647 1.364-.611 1.242-1.08 2.548-1.4 3.894l-1.556-3.672c-.2-.493-.37-1.249-.811-1.586a3.05 3.05 0 0 0-2.68.077c-.355.492-.625 1.04-.8 1.621l-1.494 3.449c-.431-.973-.714-2.009-1.091-3-.24-.634-.4-1.843-1.038-2.205-.24-.108-.502-.153-.764-.131-.612-.009-2.268-.285-2.274.669.131.704.381 1.38.739 2q.922 2.288 1.886 4.562c.261.612.449 1.622 1.008 2.031a3.78 3.78 0 0 0 2.523.111c.507-.215.682-.9.886-1.364.679-1.244 1.243-2.547 1.684-3.894m19.582.111l1.653 3.783c.226.511.418 1.229 1.019 1.4.795.213 1.637.162 2.4-.146a4.8 4.8 0 0 0 .933-1.809l1.811-4.117.833-1.891c.205-.323.27-.715.181-1.087-.119-.219-.351-.353-.6-.347-.6-.069-1.908-.213-2.4.182-.38.46-.645 1.004-.775 1.586l-1.382 3.56c-.424-1.247-1.006-2.461-1.526-3.672-.2-.458-.338-1.153-.743-1.475a3.08 3.08 0 0 0-2.691.077c-.365.487-.639 1.036-.809 1.621a22.82 22.82 0 0 0-1.463 3.56c-.522-1.178-.919-2.451-1.335-3.672a3.56 3.56 0 0 0-.714-1.586 4.36 4.36 0 0 0-2.622-.158c-.223.045-.407.202-.486.416a1.52 1.52 0 0 0 .2.995l.779 1.891 1.691 4.117c.16.657.462 1.272.885 1.8.79.335 1.673.379 2.492.124.55-.223.8-.974 1.022-1.475l1.653-3.672M1.101 37.153c.882 3.172 2.411 6.127 4.492 8.678 1.664 2.186 3.638 4.119 5.858 5.738a29 29 0 0 0 31.82 1.2 28.61 28.61 0 0 0 7.388-6.607c2.208-2.629 3.824-5.703 4.74-9.012h-3.23a3.61 3.61 0 0 0-1.4.067c-.388.189-.536.9-.7 1.268a9.76 9.76 0 0 1-1.632 2.857c-.362.35-.925.258-1.388.258h-3.113a20.26 20.26 0 0 0 1-4.45h-3.337c-.343 0-.955-.114-1.208.178-.184.321-.298.678-.335 1.046-.179.714-.389 1.41-.6 2.114-.178.59-.263 1.079-.971 1.11-4.69.206-9.435 0-14.13 0h-4.562c-.699.076-1.404.064-2.1-.035-.457-.129-.516-.689-.643-1.077-.229-.7-.428-1.4-.607-2.114-.037-.368-.151-.725-.335-1.046-.253-.293-.865-.178-1.208-.178h-3.341c.199 1.51.534 3 1 4.45H9.445c-.406 0-.951.091-1.293-.178-.821-.647-1.287-2.131-1.738-3.048-.17-.345-.31-.979-.684-1.157-.458-.112-.933-.135-1.4-.067z" fill="#eee"/><path d="M12.004 46.054c1.086 1.248 2.41 2.268 3.894 3a15.21 15.21 0 0 0-1.085-2.114c-.147-.293-.284-.682-.607-.823-.724-.15-1.468-.173-2.2-.067m7.454 0c1.856 3.333 5.305 6.849 9.457 6.434.97-.125 1.911-.416 2.782-.859a9.77 9.77 0 0 0 2.448-1.8 15.91 15.91 0 0 0 2.893-3.779H19.458m21.139 3c1.493-.717 2.82-1.739 3.894-3a6.12 6.12 0 0 0-2.183.067c-.308.142-.474.541-.623.823a13.83 13.83 0 0 0-1.087 2.122z" fill="#585858"/></svg>