<svg xmlns="http://www.w3.org/2000/svg" width="56.72" height="56.95" viewBox="0 0 56.72 56.95">
  <g id="world-wide-web" transform="translate(-1.107 -0.068)">
    <path id="Path_51" data-name="Path 51" d="M11,19.864h3.227a3.665,3.665,0,0,0,1.4-.067c.373-.177.516-.812.684-1.157.452-.926.907-2.393,1.738-3.048.342-.269.887-.178,1.293-.178H22.46a25.424,25.424,0,0,0-1,4.45H24.8c.343,0,.955.114,1.208-.178a2.645,2.645,0,0,0,.335-1.046c.179-.715.379-1.413.607-2.114.127-.388.186-.949.643-1.077a8.406,8.406,0,0,1,2.1-.035h4.562c4.695,0,9.44-.2,14.13,0,.739.032.84.606,1.017,1.222.192.667.386,1.329.555,2a2.645,2.645,0,0,0,.335,1.046c.253.293.865.178,1.208.178h3.338a20.012,20.012,0,0,0-1-4.45h3.115c.462,0,1.026-.092,1.388.258a9.761,9.761,0,0,1,1.632,2.857c.162.365.311,1.079.7,1.268a3.609,3.609,0,0,0,1.4.067H65.3a23.946,23.946,0,0,0-4.74-9.012,28.611,28.611,0,0,0-7.388-6.607,29,29,0,0,0-31.82,1.2,28.355,28.355,0,0,0-5.858,5.738A23.825,23.825,0,0,0,11,19.864Z" transform="translate(-8.792 0)" fill="#eee"/>
    <path id="Path_52" data-name="Path 52" d="M116.454,46.337h17.579a15.908,15.908,0,0,0-2.893-3.778,9.771,9.771,0,0,0-2.448-1.8,8.559,8.559,0,0,0-2.782-.859c-4.152-.415-7.6,3.1-9.457,6.434m-3.672-3c-1.247.952-2.837,1.719-3.783,3,.611,0,1.765.223,2.293-.114.454-.29.665-1.1.918-1.555.227-.406.641-.858.572-1.335m24.811,0a13.542,13.542,0,0,0,1.088,2.114c.149.282.315.681.623.823a6.118,6.118,0,0,0,2.183.067A11.856,11.856,0,0,0,137.594,43.333Z" transform="translate(-95.889 -35.373)" fill="#585858"/>
    <path id="Path_53" data-name="Path 53" d="M9.884,217.532c.5,1.28,1.076,2.524,1.622,3.783.215.495.389,1.145.939,1.364a3.311,3.311,0,0,0,2.513-.188,5.618,5.618,0,0,0,.949-1.843c.589-1.333,1.16-2.673,1.749-4.005.279-.631.573-1.256.841-1.891a1.725,1.725,0,0,0,.24-.888.646.646,0,0,0-.511-.523,4.2,4.2,0,0,0-2.532.158c-.429.319-.56,1-.74,1.475-.465,1.223-.993,2.427-1.4,3.672-.528-1.13-.971-2.3-1.463-3.449a5.985,5.985,0,0,0-.723-1.532,2.811,2.811,0,0,0-2.686-.181,3.842,3.842,0,0,0-.883,1.6,35.962,35.962,0,0,1-1.589,3.56c-.389-1.2-.836-2.375-1.258-3.56-.17-.477-.278-1.237-.689-1.573-.508-.417-1.772-.241-2.392-.2-.28.018-.586.066-.711.354a1.36,1.36,0,0,0,.113.976c.268.71.575,1.414.868,2.114.559,1.333,1.121,2.666,1.666,4.005.225.552.4,1.425.889,1.809a3.784,3.784,0,0,0,2.4.146c.607-.171.783-.892,1.03-1.4.608-1.246,1.1-2.56,1.753-3.783m19.471-.111c.6,1.281,1.107,2.607,1.695,3.894.209.457.369,1.149.876,1.364a3.484,3.484,0,0,0,2.612-.188,5.628,5.628,0,0,0,.859-1.732c.6-1.331,1.166-2.677,1.772-4.005.3-.662.595-1.333.879-2a1.619,1.619,0,0,0,.216-.989.662.662,0,0,0-.566-.432,4.244,4.244,0,0,0-2.511.168c-.36.3-.48.946-.647,1.364a18.506,18.506,0,0,0-1.4,3.894c-.561-1.2-1.051-2.448-1.556-3.672-.2-.493-.37-1.249-.811-1.586a3.052,3.052,0,0,0-2.68.077,5.477,5.477,0,0,0-.8,1.621c-.5,1.148-.963,2.316-1.494,3.449-.431-.973-.714-2.009-1.091-3-.24-.634-.4-1.843-1.038-2.205a1.554,1.554,0,0,0-.764-.131c-.612-.009-2.268-.285-2.274.669a6.327,6.327,0,0,0,.739,2q.922,2.288,1.886,4.562c.261.612.449,1.622,1.008,2.031a3.779,3.779,0,0,0,2.523.111c.507-.215.682-.9.886-1.364a23.136,23.136,0,0,0,1.684-3.894m19.582.111c.588,1.243,1.1,2.525,1.653,3.783.226.511.418,1.229,1.019,1.4a3.785,3.785,0,0,0,2.4-.146,4.8,4.8,0,0,0,.933-1.809c.594-1.376,1.217-2.74,1.811-4.117.273-.633.554-1.261.833-1.891a1.415,1.415,0,0,0,.181-1.087.665.665,0,0,0-.6-.347c-.6-.069-1.908-.213-2.4.182a3.785,3.785,0,0,0-.775,1.586c-.451,1.185-.867,2.4-1.382,3.56-.424-1.247-1.006-2.461-1.526-3.672-.2-.458-.338-1.153-.743-1.475a3.079,3.079,0,0,0-2.691.077,5.055,5.055,0,0,0-.809,1.621,22.821,22.821,0,0,0-1.463,3.56c-.522-1.178-.919-2.451-1.335-3.672a3.558,3.558,0,0,0-.714-1.586,4.358,4.358,0,0,0-2.622-.158.656.656,0,0,0-.486.416,1.52,1.52,0,0,0,.2.995c.251.634.525,1.258.779,1.891.551,1.377,1.132,2.743,1.691,4.117a4.645,4.645,0,0,0,.885,1.8,3.627,3.627,0,0,0,2.492.124c.55-.223.8-.974,1.022-1.475.546-1.226,1.144-2.43,1.653-3.672M2.208,226.655A23.825,23.825,0,0,0,6.7,235.333a28.356,28.356,0,0,0,5.858,5.738,29,29,0,0,0,31.82,1.2,28.612,28.612,0,0,0,7.388-6.607,23.946,23.946,0,0,0,4.74-9.012H53.276a3.609,3.609,0,0,0-1.4.067c-.388.189-.536.9-.7,1.268a9.761,9.761,0,0,1-1.632,2.857c-.362.35-.925.258-1.388.258H45.043a20.26,20.26,0,0,0,1-4.45H42.706c-.343,0-.955-.114-1.208.178a2.645,2.645,0,0,0-.335,1.046c-.179.714-.389,1.41-.6,2.114-.178.59-.263,1.079-.971,1.11-4.69.206-9.435,0-14.13,0H20.9a8.406,8.406,0,0,1-2.1-.035c-.457-.129-.516-.689-.643-1.077-.229-.7-.428-1.4-.607-2.114a2.645,2.645,0,0,0-.335-1.046c-.253-.293-.865-.178-1.208-.178H12.666a25.424,25.424,0,0,0,1,4.45H10.552c-.406,0-.951.091-1.293-.178-.821-.647-1.287-2.131-1.738-3.048-.17-.345-.31-.979-.684-1.157a3.665,3.665,0,0,0-1.4-.067Z" transform="translate(0 -189.434)" fill="#eee"/>
    <path id="Path_54" data-name="Path 54" d="M109,413.448a12.473,12.473,0,0,0,3.894,3,15.211,15.211,0,0,0-1.085-2.114c-.147-.293-.284-.682-.607-.823a6.366,6.366,0,0,0-2.2-.067m7.454,0c1.856,3.333,5.305,6.849,9.457,6.434a8.554,8.554,0,0,0,2.782-.859,9.771,9.771,0,0,0,2.448-1.8,15.909,15.909,0,0,0,2.893-3.779H116.454m21.139,3a11.856,11.856,0,0,0,3.894-3,6.118,6.118,0,0,0-2.183.067c-.308.142-.474.541-.623.823A13.829,13.829,0,0,0,137.594,416.452Z" transform="translate(-95.889 -367.326)" fill="#585858"/>
  </g>
</svg>
